<svg viewBox="0 0 24 24" fill="none"><path d="M2 20 C5 20 6 14 9 13 C12 12 13 16 16 12 C18 9 20 7 22 5" stroke="#0FBF7F" stroke-width="2.5" stroke-linecap="round" stroke-linejoin="round"/><path d="M18 4 L22 5 L21 9" stroke="#0FBF7F" stroke-width="2" stroke-linecap="round" stroke-linejoin="round"/><path d="M2 8 L6.5 3.5 C6.9 3.1 7.4 3 7.9 3.1 L9.8 3.9 C10.3 4.1 10.7 4.6 10.7 5.1 L10.4 7.3 C10.3 7.8 10 8.2 9.6 8.5 L5.1 11.8 C4.6 12.2 4 12.1 3.5 11.6 L2.3 10.4 C1.8 9.9 1.8 9.2 2 8Z" stroke="#111" stroke-width="1.5" stroke-linejoin="round"/><circle cx="7.5" cy="6.5" r="1" fill="#111"/></svg>