<?xml version="1.0" encoding="utf-8"?>
<svg xmlns="http://www.w3.org/2000/svg" viewBox="0 0 1259.6 1135">
<g fill="#004D33">
<path d="M962.5,528.3c-18,0-34.4,7.1-46.4,18.7L762.7,412.6c5.2-9.6,8.2-20.6,8.2-32.3c0-37.1-30.2-67.3-67.3-67.3c-37.1,0-67.3,30.2-67.3,67.3c0,27.2,16.3,50.7,39.6,61.3l-96.2,254.9c-9.3-4.9-19.9-7.7-31.2-7.7c-21.4,0-40.5,10.1-52.8,25.7l-141.4-83.4c6.4-10.3,10.2-22.4,10.2-35.4c0-37.1-30.2-67.3-67.3-67.3c-37.1,0-67.3,30.2-67.3,67.3c0,37.1,30.2,67.3,67.3,67.3c19.9,0,37.7-8.7,50.1-22.5l142,83.8c-5.1,9.5-8,20.3-8,31.8c0,37.1,30.2,67.3,67.3,67.3c37.1,0,67.3-30.2,67.3-67.3c0-21.6-10.3-40.8-26.1-53.1l97.2-257.5c5.3,1.4,10.9,2.2,16.7,2.2c21.2,0,40.1-9.9,52.5-25.3l152.2,133.4c-8.2,11.2-13.2,24.9-13.2,39.8c0,37.1,30.2,67.3,67.3,67.3s67.3-30.2,67.3-67.3C1029.8,558.5,999.6,528.3,962.5,528.3z M297.1,627.8c-17.8,0-32.2-14.4-32.2-32.2c0-17.8,14.4-32.2,32.2-32.2c17.8,0,32.2,14.4,32.2,32.2C329.3,613.4,314.9,627.8,297.1,627.8z M548.5,788.3c-17.8,0-32.2-14.4-32.2-32.2s14.4-32.2,32.2-32.2c17.8,0,32.2,14.4,32.2,32.2C580.7,773.9,566.3,788.3,548.5,788.3z M703.6,412.5c-17.8,0-32.2-14.4-32.2-32.2c0-17.8,14.4-32.2,32.2-32.2c17.7,0,32.2,14.4,32.2,32.2C735.8,398.1,721.4,412.5,703.6,412.5z M962.5,627.8c-17.8,0-32.2-14.4-32.2-32.2c0-17.8,14.4-32.2,32.2-32.2c17.8,0,32.2,14.4,32.2,32.2C994.7,613.4,980.2,627.8,962.5,627.8z"/>
<path d="M357,543.7c12.1-138,128.2-246.5,269.2-246.5c16.8,0,33.3,1.6,49.3,4.6c7.7-2.4,16-3.8,24.5-3.8c30.4,0,56.9,16.7,70.9,41.4c59.1,37.7,102.7,97.6,118.8,168l23.1,20.3c4.9-3.4,10.1-6.2,15.6-8.4c-23.2-145.9-149.9-257.8-302.2-257.8c-152.3,0-279,111.9-302.2,257.8C337,524.5,348.3,533,357,543.7z"/>
<path d="M888,635.1c-30.1,116.4-136,202.7-261.7,202.7c-18.6,0-36.8-1.9-54.3-5.5c-8.5,3-17.5,4.7-27,4.7c-33.4,0-62.1-20.2-74.8-49c-39.3-27.9-70.9-66.1-90.8-110.6l-33.7-19.9c-3,2.5-6.3,4.8-9.6,6.8c40.6,121.4,155.3,209.1,290.2,209.1c134.9,0,249.5-87.7,290.2-209.1C904.6,657.2,894.8,647.2,888,635.1z"/>
</g>
</svg>