<svg xmlns="http://www.w3.org/2000/svg" viewBox="0 0 30 30" width="512" height="512">
  <rect width="30" height="30" rx="7" fill="#00A86B"/>
  <path d="M4 8.5 C4 5.5 6.5 4 9 4 L21 4 C23.5 4 26 5.5 26 8.5 L26 17 C26 20 23.5 21.5 21 21.5 L17 21.5 L11.5 26.5 L11.5 21.5 L9 21.5 C6.5 21.5 4 20 4 17 Z" stroke="#fff" stroke-width="1.8" stroke-linejoin="round" fill="#fff" opacity=".18"/>
    <path d="M12.5 12 C12.5 10 13.5 9 15 9 C16.5 9 17.5 10 17.5 11.5 C17.5 13 16 13.5 15.5 14.5 L15.5 16" stroke="#fff" stroke-width="1.7" stroke-linecap="round" fill="none"/>
    <circle cx="15.5" cy="18" r="1.2" fill="#fff"/>
</svg>