<svg width="28" height="28" viewBox="0 0 28 28" fill="none" xmlns="http://www.w3.org/2000/svg">
<path d="M20 0H8C3.58172 0 0 3.58172 0 8V20C0 24.4183 3.58172 28 8 28H20C24.4183 28 28 24.4183 28 20V8C28 3.58172 24.4183 0 20 0Z" fill="#0289F7"/>
<path d="M14.4999 19.5089H6.5V17.5089H14.4999V19.5089ZM17.0497 5.5C18.0507 5.03335 19.2401 5.46677 19.7069 6.46778L21.1864 9.6397C21.6531 10.6408 21.2197 11.8311 20.2186 12.2979L17.4999 13.5655L18.4755 15.6583L19.8251 18.55L19.1532 19.4767L18 19.4836L16.744 16.6759L15.2646 13.504L15.7489 12.1749L19.3739 10.4844L17.8944 7.31252L10.6445 10.6934L12.1386 13.8976L13.9931 13.1134L14.3837 14.0353L14.7724 14.9562L12.9179 15.7403C11.9267 16.1595 10.7812 15.7185 10.3261 14.7433L8.83201 11.5391C8.36523 10.5381 8.79785 9.34777 9.7988 8.8809L17.0497 5.5Z" fill="white"/>
</svg>
